0
SECTION
2
HEADER
9
$ACADVER
1
AC1009
0
ENDSEC
0
SECTION
2
TABLES
0
TABLE
2
LAYER
70
3
0
LAYER
2
WALL
70
0
62
7
6
CONTINUOUS
0
LAYER
2
DOOR
70
0
62
1
6
CONTINUOUS
0
LAYER
2
WINDOW
70
0
62
5
6
CONTINUOUS
0
ENDTAB
0
ENDSEC
0
SECTION
2
ENTITIES
0
LINE
8
WALL
10
0
20
0
30
0
11
5000
21
0
31
0
0
LINE
8
WALL
10
5000
20
0
30
0
11
5000
21
4000
31
0
0
LINE
8
WALL
10
5000
20
4000
30
0
11
0
21
4000
31
0
0
LINE
8
WALL
10
0
20
4000
30
0
11
0
21
0
31
0
0
LINE
8
DOOR
10
2000
20
0
30
0
11
2900
21
0
31
0
0
LINE
8
WINDOW
10
5000
20
1500
30
0
11
5000
21
2500
31
0
0
ENDSEC
0
EOF
