$MeshFormat
2.2 0 8
$EndMeshFormat
$Nodes
25
1 0 0 0
2 0.25 0 0
3 0.5 0 0
4 0.75 0 0
5 1 0 0
6 0 0.25 0
7 0.25 0.25 0
8 0.5 0.25 0
9 0.75 0.25 0
10 1 0.25 0
11 0 0.5 0
12 0.25 0.5 0
13 0.5 0.5 0
14 0.75 0.5 0
15 1 0.5 0
16 0 0.75 0
17 0.25 0.75 0
18 0.5 0.75 0
19 0.75 0.75 0
20 1 0.75 0
21 0 1 0
22 0.25 1 0
23 0.5 1 0
24 0.75 1 0
25 1 1 0
$EndNodes
$Elements
42
1 1 2 0 1 1 2
2 1 2 0 1 2 3
3 1 2 0 1 3 4
4 1 2 0 1 4 5
5 1 2 0 2 5 10
6 1 2 0 2 10 15
7 1 2 0 2 15 20
8 1 2 0 2 20 25
9 1 2 0 3 25 24
10 1 2 0 3 24 23
11 1 2 0 3 23 22
12 1 2 0 3 22 21
13 1 2 0 4 21 16
14 1 2 0 4 16 11
15 1 2 0 4 11 6
16 1 2 0 4 6 1
17 3 2 0 0 1 6 7 2
18 3 2 0 0 2 7 3
19 3 2 0 0 6 11 12 7
20 3 2 0 0 7 12 8
21 3 2 0 0 3 8 4
22 3 2 0 0 8 13 12
23 3 2 0 0 12 17 16
24 3 2 0 0 12 18 13
25 3 2 0 0 4 9 8
26 3 2 0 0 8 9 14
27 3 2 0 0 13 14 9
28 3 2 0 0 13 19 18
29 3 2 0 0 17 22 16
30 3 2 0 0 16 22 21
31 3 2 0 0 18 23 17
32 3 2 0 0 17 23 22
33 3 2 0 0 18 24 23
34 3 2 0 0 19 24 18
35 3 2 0 0 19 20 25
36 3 2 0 0 19 25 24
37 3 2 0 0 14 15 10
38 3 2 0 0 9 15 14
39 3 2 0 0 14 20 19
40 3 2 0 0 14 19 15
41 3 2 0 0 11 12 7
42 3 2 0 0 7 8 12
$EndElements
